<svg width="168" height="373" viewBox="0 0 168 373" fill="none" xmlns="http://www.w3.org/2000/svg">
<path fill-rule="evenodd" clip-rule="evenodd" d="M0 -10H168V181H0V-10Z" fill="#00FFFF"/>
<path d="M60.22 145.36C60.22 142.2 60.68 139.42 61.6 137.02C62.52 134.58 63.9 132.4 65.74 130.48L71.62 135.46C69.34 138.34 68.2 141.36 68.2 144.52C68.2 146.16 68.52 147.42 69.16 148.3C69.76 149.14 70.62 149.56 71.74 149.56C72.54 149.56 73.2 149.34 73.72 148.9C74.24 148.46 74.74 147.72 75.22 146.68C75.7 145.64 76.3 144 77.02 141.76C78.38 137.48 80.1 134.36 82.18 132.4C84.22 130.4 87.06 129.4 90.7 129.4C93.34 129.4 95.68 130.08 97.72 131.44C99.72 132.8 101.28 134.78 102.4 137.38C103.52 139.94 104.08 142.96 104.08 146.44C104.08 153.08 102.06 158.5 98.02 162.7L91.96 157.24C94.68 153.92 96.04 150.46 96.04 146.86C96.04 144.98 95.64 143.52 94.84 142.48C94 141.44 92.9 140.92 91.54 140.92C90.58 140.92 89.8 141.12 89.2 141.52C88.56 141.92 88 142.64 87.52 143.68C87 144.68 86.44 146.16 85.84 148.12C84.36 152.84 82.58 156.16 80.5 158.08C78.42 160 75.8 160.96 72.64 160.96C70.16 160.96 67.98 160.3 66.1 158.98C64.22 157.62 62.78 155.76 61.78 153.4C60.74 151 60.22 148.32 60.22 145.36ZM89.02 91.9553C91.9 91.9553 94.48 92.5953 96.76 93.8753C99.04 95.1153 100.84 96.9953 102.16 99.5153C103.44 102.035 104.08 105.115 104.08 108.755C104.08 114.275 102.74 118.455 100.06 121.295C97.34 124.135 93.66 125.555 89.02 125.555H61.3V114.455H88.66C91.18 114.455 93.04 114.015 94.24 113.135C95.4 112.215 95.98 110.755 95.98 108.755C95.98 106.755 95.38 105.315 94.18 104.435C92.98 103.555 91.14 103.115 88.66 103.115H61.3V91.9553H89.02ZM87.64 71.9477V75.0077H103V86.1077H61.3V71.6477C61.3 65.7677 62.36 61.3877 64.48 58.5077C66.6 55.5877 69.86 54.1277 74.26 54.1277C76.9 54.1277 79.1 54.7477 80.86 55.9877C82.62 57.1877 84.2 59.1277 85.6 61.8077L103 51.4277V63.7877L87.64 71.9477ZM80.08 75.0077V71.2877C80.08 67.4477 78.14 65.5277 74.26 65.5277C72.46 65.5277 71.14 66.0677 70.3 67.1477C69.46 68.1877 69.04 69.7677 69.04 71.8877V75.0077H80.08ZM103 48.9006H61.3V23.2806L69.16 24.4206V37.8006H79.18V26.0406H87.04V37.8006H103V48.9006Z" fill="white"/>
<path d="M55.3 335.44L74.02 345.34L97 334.36V346.36L79.3 354.7V358.66H97V369.76H55.3V358.66H71.38V354.46L55.3 346.24V335.44ZM55.3 317.453C55.3 311.853 56.48 307.513 58.84 304.433C61.16 301.313 64.58 299.753 69.1 299.753C73.82 299.753 77.42 301.253 79.9 304.253C82.34 307.253 83.56 311.293 83.56 316.373V320.633H97V331.733H55.3V317.453ZM75.64 317.393C75.64 315.313 75.12 313.753 74.08 312.713C73.04 311.633 71.4 311.093 69.16 311.093C65.12 311.093 63.1 313.273 63.1 317.633V320.633H75.64V317.393ZM69.22 280.825C69.22 275.425 70.36 271.285 72.64 268.405C74.88 265.485 78.24 264.025 82.72 264.025C87.4 264.025 90.96 265.525 93.4 268.525C95.8 271.485 97 275.445 97 280.405V295.405H55.3V284.305H69.22V280.825ZM55.3 261.385V250.285H97V261.385H55.3ZM89.08 281.665C89.08 277.625 87 275.605 82.84 275.605C80.84 275.605 79.34 276.105 78.34 277.105C77.3 278.105 76.78 279.705 76.78 281.905V284.305H89.08V281.665ZM97 201.123V212.043L81.46 212.583L78.88 212.643C76.48 212.723 74.66 212.763 73.42 212.763C70.42 212.763 67.42 212.643 64.42 212.403L92.68 218.103V228.603L64.42 234.663C69.1 234.303 73.22 234.123 76.78 234.123C78.82 234.123 80.38 234.143 81.46 234.183L97 234.663V245.583L55.3 242.523V228.723L82.96 223.143L55.3 218.103L55.3 204.243L97 201.123Z" fill="white"/>
<rect x="83" y="191" width="20" height="1" transform="rotate(-90 83 191)" fill="white"/>
</svg>
